<mxfile host="Electron" modified="2024-03-14T16:09:19.748Z" agent="Mozilla/5.0 (Windows NT 10.0; Win64; x64) AppleWebKit/537.36 (KHTML, like Gecko) draw.io/24.0.4 Chrome/120.0.6099.109 Electron/28.1.0 Safari/537.36" etag="NduyRtRkv7gpxDj1lQXd" version="24.0.4" type="device">
  <diagram name="第 1 页" id="Jd7-73F074mrr_AuGgJH">
    <mxGraphModel dx="1585" dy="694" grid="0" gridSize="10" guides="1" tooltips="1" connect="1" arrows="1" fold="1" page="0" pageScale="1" pageWidth="827" pageHeight="1169" math="0" shadow="0">
      <root>
        <mxCell id="0" />
        <mxCell id="1" parent="0" />
        <mxCell id="VpwYdxR6YieiCVpPiCMP-21" value="" style="rounded=0;whiteSpace=wrap;html=1;dashed=1;strokeWidth=2;fillColor=#e1d5e7;strokeColor=#9673a6;" vertex="1" parent="1">
          <mxGeometry x="110" y="420" width="230" height="190" as="geometry" />
        </mxCell>
        <mxCell id="VpwYdxR6YieiCVpPiCMP-20" value="" style="rounded=0;whiteSpace=wrap;html=1;dashed=1;strokeWidth=2;fillColor=#e1d5e7;strokeColor=#9673a6;" vertex="1" parent="1">
          <mxGeometry x="-110" y="420" width="160" height="270" as="geometry" />
        </mxCell>
        <mxCell id="VpwYdxR6YieiCVpPiCMP-14" style="edgeStyle=orthogonalEdgeStyle;rounded=0;orthogonalLoop=1;jettySize=auto;html=1;exitX=1;exitY=0.5;exitDx=0;exitDy=0;entryX=0;entryY=0.5;entryDx=0;entryDy=0;" edge="1" parent="1" source="VpwYdxR6YieiCVpPiCMP-1" target="VpwYdxR6YieiCVpPiCMP-7">
          <mxGeometry relative="1" as="geometry" />
        </mxCell>
        <mxCell id="VpwYdxR6YieiCVpPiCMP-1" value="测试工程1仓库" style="rounded=0;whiteSpace=wrap;html=1;fillColor=#fff2cc;strokeColor=#d6b656;fontSize=15;fontStyle=1" vertex="1" parent="1">
          <mxGeometry x="-90" y="450" width="120" height="40" as="geometry" />
        </mxCell>
        <mxCell id="VpwYdxR6YieiCVpPiCMP-3" value="测试工程2仓库" style="rounded=0;whiteSpace=wrap;html=1;fillColor=#fff2cc;strokeColor=#d6b656;fontSize=15;fontStyle=1" vertex="1" parent="1">
          <mxGeometry x="-90" y="510" width="120" height="40" as="geometry" />
        </mxCell>
        <mxCell id="VpwYdxR6YieiCVpPiCMP-4" value="……" style="rounded=0;whiteSpace=wrap;html=1;fillColor=#fff2cc;strokeColor=#d6b656;fontSize=15;fontStyle=1" vertex="1" parent="1">
          <mxGeometry x="-90" y="570" width="120" height="40" as="geometry" />
        </mxCell>
        <mxCell id="VpwYdxR6YieiCVpPiCMP-6" value="Utility仓库" style="rounded=0;whiteSpace=wrap;html=1;fillColor=#fff2cc;strokeColor=#d6b656;fontSize=15;fontStyle=1" vertex="1" parent="1">
          <mxGeometry x="-90" y="630" width="120" height="40" as="geometry" />
        </mxCell>
        <mxCell id="VpwYdxR6YieiCVpPiCMP-18" style="edgeStyle=orthogonalEdgeStyle;rounded=0;orthogonalLoop=1;jettySize=auto;html=1;exitX=0.5;exitY=1;exitDx=0;exitDy=0;entryX=0;entryY=0.5;entryDx=0;entryDy=0;startArrow=classic;startFill=1;endArrow=none;endFill=0;" edge="1" parent="1" source="VpwYdxR6YieiCVpPiCMP-7" target="VpwYdxR6YieiCVpPiCMP-10">
          <mxGeometry relative="1" as="geometry" />
        </mxCell>
        <mxCell id="VpwYdxR6YieiCVpPiCMP-29" style="rounded=0;orthogonalLoop=1;jettySize=auto;html=1;exitX=1;exitY=0;exitDx=0;exitDy=0;entryX=0;entryY=1;entryDx=0;entryDy=0;sketch=1;curveFitting=1;jiggle=2;flowAnimation=0;edgeStyle=isometricEdgeStyle;" edge="1" parent="1" source="VpwYdxR6YieiCVpPiCMP-7" target="VpwYdxR6YieiCVpPiCMP-28">
          <mxGeometry relative="1" as="geometry" />
        </mxCell>
        <mxCell id="VpwYdxR6YieiCVpPiCMP-7" value="测试工程1仓库" style="rounded=0;whiteSpace=wrap;html=1;fillColor=#fff2cc;strokeColor=#d6b656;fontSize=15;fontStyle=1" vertex="1" parent="1">
          <mxGeometry x="125" y="450" width="120" height="40" as="geometry" />
        </mxCell>
        <mxCell id="VpwYdxR6YieiCVpPiCMP-10" value="Utility仓库" style="rounded=0;whiteSpace=wrap;html=1;fillColor=#fff2cc;strokeColor=#d6b656;fontSize=15;fontStyle=1" vertex="1" parent="1">
          <mxGeometry x="205" y="550" width="120" height="40" as="geometry" />
        </mxCell>
        <mxCell id="VpwYdxR6YieiCVpPiCMP-12" style="edgeStyle=orthogonalEdgeStyle;rounded=0;orthogonalLoop=1;jettySize=auto;html=1;exitX=1;exitY=0.5;exitDx=0;exitDy=0;exitPerimeter=0;entryX=0;entryY=0.5;entryDx=0;entryDy=0;" edge="1" parent="1" source="VpwYdxR6YieiCVpPiCMP-11" target="VpwYdxR6YieiCVpPiCMP-1">
          <mxGeometry relative="1" as="geometry" />
        </mxCell>
        <mxCell id="VpwYdxR6YieiCVpPiCMP-11" value="&lt;font style=&quot;font-size: 15px;&quot;&gt;开始&lt;/font&gt;" style="verticalLabelPosition=middle;verticalAlign=middle;html=1;shape=mxgraph.flowchart.on-page_reference;aspect=fixed;labelPosition=center;align=center;fillColor=#f8cecc;strokeColor=#b85450;fontStyle=1" vertex="1" parent="1">
          <mxGeometry x="-230" y="440" width="60" height="60" as="geometry" />
        </mxCell>
        <mxCell id="VpwYdxR6YieiCVpPiCMP-16" value="&lt;b style=&quot;font-size: 15px; text-wrap: nowrap;&quot;&gt;git push&lt;/b&gt;" style="text;html=1;align=center;verticalAlign=middle;whiteSpace=wrap;rounded=0;fillColor=#f5f5f5;fontColor=#333333;strokeColor=#666666;" vertex="1" parent="1">
          <mxGeometry x="-160" y="430" width="60" height="30" as="geometry" />
        </mxCell>
        <mxCell id="VpwYdxR6YieiCVpPiCMP-17" value="&lt;span style=&quot;font-size: 15px; text-wrap: nowrap;&quot;&gt;&lt;b&gt;自动克隆&lt;/b&gt;&lt;/span&gt;" style="text;html=1;align=center;verticalAlign=middle;whiteSpace=wrap;rounded=0;fillColor=#f5f5f5;fontColor=#333333;strokeColor=#666666;" vertex="1" parent="1">
          <mxGeometry x="50" y="430" width="70" height="30" as="geometry" />
        </mxCell>
        <mxCell id="VpwYdxR6YieiCVpPiCMP-19" value="&lt;span style=&quot;font-size: 15px; text-wrap: nowrap;&quot;&gt;&lt;b&gt;submodule&lt;/b&gt;&lt;/span&gt;" style="text;html=1;align=center;verticalAlign=middle;whiteSpace=wrap;rounded=0;fillColor=#f5f5f5;fontColor=#333333;strokeColor=#666666;" vertex="1" parent="1">
          <mxGeometry x="135" y="515" width="85" height="30" as="geometry" />
        </mxCell>
        <mxCell id="VpwYdxR6YieiCVpPiCMP-26" value="&lt;div&gt;&lt;b style=&quot;font-size: 15px; text-wrap: nowrap;&quot;&gt;gitlab&lt;/b&gt;&lt;/div&gt;&lt;b style=&quot;font-size: 15px; text-wrap: nowrap;&quot;&gt;runner&lt;/b&gt;" style="text;html=1;align=center;verticalAlign=middle;whiteSpace=wrap;rounded=0;fillColor=#f5f5f5;fontColor=#333333;strokeColor=#666666;" vertex="1" parent="1">
          <mxGeometry x="195" y="370" width="60" height="40" as="geometry" />
        </mxCell>
        <mxCell id="VpwYdxR6YieiCVpPiCMP-27" value="&lt;div&gt;&lt;b style=&quot;font-size: 15px; text-wrap: nowrap;&quot;&gt;gitlab&lt;/b&gt;&lt;/div&gt;&lt;span style=&quot;font-size: 15px; text-wrap: nowrap;&quot;&gt;&lt;b&gt;sever&lt;/b&gt;&lt;/span&gt;" style="text;html=1;align=center;verticalAlign=middle;whiteSpace=wrap;rounded=0;fillColor=#f5f5f5;fontColor=#333333;strokeColor=#666666;" vertex="1" parent="1">
          <mxGeometry x="-60" y="364" width="60" height="40" as="geometry" />
        </mxCell>
        <mxCell id="VpwYdxR6YieiCVpPiCMP-28" value="&lt;b&gt;&lt;font style=&quot;font-size: 15px;&quot;&gt;.gitlab_cicd.yml&lt;/font&gt;&lt;/b&gt;" style="rounded=0;whiteSpace=wrap;html=1;fillColor=#dae8fc;strokeColor=#6c8ebf;" vertex="1" parent="1">
          <mxGeometry x="344" y="340" width="139" height="30" as="geometry" />
        </mxCell>
        <mxCell id="VpwYdxR6YieiCVpPiCMP-33" style="edgeStyle=orthogonalEdgeStyle;rounded=0;orthogonalLoop=1;jettySize=auto;html=1;exitX=1;exitY=0.5;exitDx=0;exitDy=0;startArrow=classic;startFill=1;endArrow=none;endFill=0;" edge="1" parent="1" source="VpwYdxR6YieiCVpPiCMP-30" target="VpwYdxR6YieiCVpPiCMP-31">
          <mxGeometry relative="1" as="geometry" />
        </mxCell>
        <mxCell id="VpwYdxR6YieiCVpPiCMP-44" style="edgeStyle=orthogonalEdgeStyle;rounded=0;orthogonalLoop=1;jettySize=auto;html=1;exitX=0.5;exitY=0;exitDx=0;exitDy=0;" edge="1" parent="1" source="VpwYdxR6YieiCVpPiCMP-30">
          <mxGeometry relative="1" as="geometry">
            <mxPoint x="278" y="610" as="targetPoint" />
          </mxGeometry>
        </mxCell>
        <mxCell id="VpwYdxR6YieiCVpPiCMP-30" value="&lt;b&gt;&lt;font style=&quot;font-size: 15px;&quot;&gt;Greentea&lt;/font&gt;&lt;/b&gt;" style="rounded=0;whiteSpace=wrap;html=1;fillColor=#e1d5e7;strokeColor=#9673a6;dashed=1;strokeWidth=2;" vertex="1" parent="1">
          <mxGeometry x="216" y="630" width="124" height="60" as="geometry" />
        </mxCell>
        <mxCell id="VpwYdxR6YieiCVpPiCMP-31" value="&lt;div&gt;&lt;b&gt;&lt;font style=&quot;font-size: 15px;&quot;&gt;瑞萨RA系列&lt;/font&gt;&lt;/b&gt;&lt;/div&gt;&lt;b&gt;&lt;font style=&quot;font-size: 15px;&quot;&gt;MCU&lt;/font&gt;&lt;/b&gt;" style="rounded=0;whiteSpace=wrap;html=1;fillColor=#d5e8d4;strokeColor=#82b366;" vertex="1" parent="1">
          <mxGeometry x="444" y="545" width="120" height="60" as="geometry" />
        </mxCell>
        <mxCell id="VpwYdxR6YieiCVpPiCMP-35" value="" style="curved=1;endArrow=classic;html=1;rounded=0;" edge="1" parent="1">
          <mxGeometry width="50" height="50" relative="1" as="geometry">
            <mxPoint x="271" y="474" as="sourcePoint" />
            <mxPoint x="289" y="480" as="targetPoint" />
            <Array as="points">
              <mxPoint x="271" y="452" />
              <mxPoint x="286" y="442" />
              <mxPoint x="307" y="440" />
              <mxPoint x="317" y="445" />
              <mxPoint x="325" y="454" />
              <mxPoint x="325" y="467" />
              <mxPoint x="315" y="485" />
            </Array>
          </mxGeometry>
        </mxCell>
        <mxCell id="VpwYdxR6YieiCVpPiCMP-39" style="edgeStyle=orthogonalEdgeStyle;rounded=0;orthogonalLoop=1;jettySize=auto;html=1;entryX=0.5;entryY=0;entryDx=0;entryDy=0;exitX=0.5;exitY=1;exitDx=0;exitDy=0;" edge="1" parent="1" source="VpwYdxR6YieiCVpPiCMP-36" target="VpwYdxR6YieiCVpPiCMP-31">
          <mxGeometry relative="1" as="geometry" />
        </mxCell>
        <mxCell id="VpwYdxR6YieiCVpPiCMP-36" value="&lt;b style=&quot;font-size: 15px; text-wrap: nowrap;&quot;&gt;1.编译成hex文件&lt;/b&gt;" style="text;html=1;align=center;verticalAlign=middle;whiteSpace=wrap;rounded=0;fillColor=#f5f5f5;fontColor=#333333;strokeColor=#666666;" vertex="1" parent="1">
          <mxGeometry x="303" y="445" width="128" height="25" as="geometry" />
        </mxCell>
        <mxCell id="VpwYdxR6YieiCVpPiCMP-41" value="&lt;b style=&quot;font-size: 15px; text-wrap: nowrap;&quot;&gt;2.烧录&lt;/b&gt;" style="text;html=1;align=center;verticalAlign=middle;whiteSpace=wrap;rounded=0;fillColor=#f5f5f5;fontColor=#333333;strokeColor=#666666;" vertex="1" parent="1">
          <mxGeometry x="405" y="493" width="61" height="25" as="geometry" />
        </mxCell>
        <mxCell id="VpwYdxR6YieiCVpPiCMP-42" value="&lt;b style=&quot;font-size: 15px; text-wrap: nowrap;&quot;&gt;3.收集log&lt;/b&gt;" style="text;html=1;align=center;verticalAlign=middle;whiteSpace=wrap;rounded=0;fillColor=#f5f5f5;fontColor=#333333;strokeColor=#666666;" vertex="1" parent="1">
          <mxGeometry x="405" y="642" width="79" height="25" as="geometry" />
        </mxCell>
        <mxCell id="VpwYdxR6YieiCVpPiCMP-45" value="&lt;b style=&quot;font-size: 15px; text-wrap: nowrap;&quot;&gt;4.解析及其他需求&lt;/b&gt;" style="text;html=1;align=center;verticalAlign=middle;whiteSpace=wrap;rounded=0;fillColor=#f5f5f5;fontColor=#333333;strokeColor=#666666;" vertex="1" parent="1">
          <mxGeometry x="286" y="599" width="130" height="25" as="geometry" />
        </mxCell>
        <mxCell id="VpwYdxR6YieiCVpPiCMP-47" value="&lt;b&gt;&lt;font style=&quot;font-size: 15px;&quot;&gt;RGW&lt;/font&gt;&lt;/b&gt;" style="rounded=0;whiteSpace=wrap;html=1;fillColor=#e1d5e7;strokeColor=#9673a6;dashed=1;strokeWidth=2;" vertex="1" parent="1">
          <mxGeometry x="110" y="630" width="65" height="60" as="geometry" />
        </mxCell>
        <mxCell id="VpwYdxR6YieiCVpPiCMP-48" style="edgeStyle=orthogonalEdgeStyle;rounded=0;orthogonalLoop=1;jettySize=auto;html=1;exitX=0.5;exitY=0;exitDx=0;exitDy=0;entryX=0.143;entryY=1.003;entryDx=0;entryDy=0;entryPerimeter=0;startArrow=classic;startFill=1;endArrow=none;endFill=0;" edge="1" parent="1" source="VpwYdxR6YieiCVpPiCMP-47" target="VpwYdxR6YieiCVpPiCMP-21">
          <mxGeometry relative="1" as="geometry" />
        </mxCell>
        <mxCell id="VpwYdxR6YieiCVpPiCMP-49" value="&lt;b style=&quot;font-size: 15px; text-wrap: nowrap;&quot;&gt;5.存储log&lt;/b&gt;" style="text;html=1;align=center;verticalAlign=middle;whiteSpace=wrap;rounded=0;fillColor=#f5f5f5;fontColor=#333333;strokeColor=#666666;" vertex="1" parent="1">
          <mxGeometry x="148.5" y="599" width="73" height="25" as="geometry" />
        </mxCell>
      </root>
    </mxGraphModel>
  </diagram>
</mxfile>
